# xmcd
#
# Track frame offsets:
#	150
#	15534
#	27607
#	44353
#	62040
#	78263
#	91839
#	107352
#	126516
#	145988
#	161506
#	179026
#	196451
#	215802
#	233400
#	261298
#
# Disc length: 3499 seconds
#
# Revision: 1
# Processed by: cddbd v1.5.1PL2 Copyright (c) Steve Scherf et al.
# Submitted via: audiograbber 1.83.01
#
DISCID=e10da910
DTITLE=Tanya Tucker - CBK-90277
DYEAR=1900
DGENRE=Karaoke
TTITLE0=The Jamestown Ferry
TTITLE1=Pecos Promenade
TTITLE2=Old Weaknesses (Coming On Strong)
TTITLE3=I Won't Take Less Than Your Love
TTITLE4=Don't Go Out
TTITLE5=Daddy And Home
TTITLE6=Call On Me
TTITLE7=Already Gone
TTITLE8=Can't Run From Yourself
TTITLE9=Danger Ahead
TTITLE10=Ridin' Out The Heartache
TTITLE11=We Don't Have To Do This
TTITLE12=You Just Watch Me
TTITLE13=Tell Me About It
TTITLE14=A Memory Like I'm Gonna Be
TTITLE15=CD_Credits
EXTD=
EXTT0=
EXTT1=
EXTT2=
EXTT3=
EXTT4=
EXTT5=
EXTT6=
EXTT7=
EXTT8=
EXTT9=
EXTT10=
EXTT11=
EXTT12=
EXTT13=
EXTT14=
EXTT15=
PLAYORDER=
